inDegrees=yes
name=ik_lifting_orientations
DataType=double
version=3
OpenSimVersion=4.5-2024-01-10-34fd6af
endheader
time	pelvis_tilt	pelvis_list	pelvis_rotation	pelvis_tx	pelvis_ty	pelvis_tz	hip_flexion_r	hip_adduction_r	hip_rotation_r	knee_angle_r	knee_angle_r_beta	ankle_angle_r	subtalar_angle_r	mtp_angle_r	hip_flexion_l	hip_adduction_l	hip_rotation_l	knee_angle_l	knee_angle_l_beta	ankle_angle_l	subtalar_angle_l	mtp_angle_l	lumbar_extension	lumbar_bending	lumbar_rotation	arm_flex_r	arm_add_r	arm_rot_r	elbow_flex_r	pro_sup_r	wrist_flex_r	wrist_dev_r	arm_flex_l	arm_add_l	arm_rot_l	elbow_flex_l	pro_sup_l	wrist_flex_l	wrist_dev_l
3.5	-1.729028310195788	3.641342480320336	-22.06044638764941	0	0.9399999999597537	0	44.9422482177211	-10.00297088522266	0	59.99207902331938	1.047059304073547	-4.99961566701785	0	0	44.9422482177211	-10.00297088522266	0	59.99207902331938	1.047059304073547	-4.99961566701785	0	0	-0.566814842665991	2.617734560012252	-2.718494732746289	21.74817781227542	13.79307619596001	14.9287174974826	15.81794857893736	45.01865128048659	0	0	0	-13.99876704726447	0	74.94738069953988	45.01865128047643	0	0
3.51	-2.316725523003786	3.630511271240632	-21.86469043430256	0	0.9399999999597537	0	44.94226267409071	-10.00296828489779	0	59.99208060609314	1.047059331698161	-4.999616105702541	0	0	44.94226267409071	-10.00296828489779	0	59.99208060609314	1.047059331698161	-4.999616105702541	0	0	0.3385216135135841	3.660273674335216	-3.366989311190931	21.90916309549935	14.28265874167219	15.20565966129591	14.47420839175291	45.01863836882534	0	0	0	-13.9988952988895	0	74.94739391507923	45.01863836881518	0	0
3.52	-2.296891037098362	3.613856864545268	-21.8524519830701	0	0.9399999999597537	0	44.94226861908744	-10.00296722023933	0	59.99208125915646	1.047059343096266	-4.999616285149706	0	0	44.94226861908744	-10.00296722023933	0	59.99208125915646	1.047059343096266	-4.999616285149706	0	0	0.3359103419801105	3.689458903292409	-3.393439318729059	21.76968741681844	14.39000873844169	15.11338897287562	14.2782910237857	45.01863307809078	0	0	0	-13.99894816903247	0	74.94739934980053	45.01863307808063	0	0
3.53	-2.312249918074428	3.636859016778002	-21.83661844635306	0	0.9399999999597537	0	44.94229101580734	-10.00296319734686	0	59.99208371250359	1.047059385915251	-4.999616963497431	0	0	44.94229101580734	-10.00296319734686	0	59.99208371250359	1.047059385915251	-4.999616963497431	0	0	1.087510457388921	3.199566990703765	-2.831012949196068	21.95555462324699	15.48131416637949	13.98446705949043	13.21101437666453	45.01861309574286	0	0	0	-13.99914696194218	0	74.94741982414804	45.01861309573273	0	0
3.54	-1.815913203496952	2.824121448774416	-21.35706471365799	0	0.9399999999597537	0	44.94232340206134	-10.00295736826738	0	59.99208725100082	1.047059447673678	-4.999617946498196	0	0	44.94232340206134	-10.00295736826738	0	59.99208725100082	1.047059447673678	-4.999617946498196	0	0	-0.002964730340789973	5.031296889311689	-4.444037681078629	21.54636590528327	15.31140746234002	15.23497295282686	13.92983882278846	45.01858414780209	0	0	0	-13.99943394094099	0	74.94744943059997	45.01858414779195	0	0
3.55	-3.497293735891626	3.606934145467234	-21.43679480246565	0	0.9399999999597537	0	44.94236236664699	-10.0029505004307	0	59.99209156104517	1.047059522898143	-4.999619098451447	0	0	44.94236236664699	-10.0029505004307	0	59.99209156104517	1.047059522898143	-4.999619098451447	0	0	1.340752895932931	3.969874402788903	-3.672426193118671	22.69741485236923	16.15925289836839	14.39755602318185	13.97118023227813	45.01854989039217	0	0	0	-13.99978240755265	0	74.94748505074956	45.01854989038206	0	0
3.56	-3.505442520090671	3.599118035704255	-21.43595604630828	0	0.9399999999597537	0	44.9423747876329	-10.00294828205484	0	59.99209292412685	1.047059546688406	-4.99961947177453	0	0	44.9423747876329	-10.00294828205484	0	59.99209292412685	1.047059546688406	-4.99961947177453	0	0	1.361610882885669	3.992810591619203	-3.68969601845403	23.01923638838217	16.59063031616859	14.23912243819391	13.48318154455853	45.01853885537961	0	0	0	-13.99989285681401	0	74.94749640560808	45.01853885536951	0	0
3.57	-2.936196886070638	4.00547414054462	-21.93545613006203	0	0.9399999999597537	0	44.94239653970394	-10.00294444455221	0	59.99209533343401	1.047059588738749	-4.999620115937717	0	0	44.94239653970394	-10.00294444455221	0	59.99209533343401	1.047059588738749	-4.999620115937717	0	0	0.9248415917099069	3.398574823172902	-3.189263955760552	23.07919095993549	16.60133620366568	14.19876439732809	13.45417399132945	45.01851972321131	0	0	0	-14.00008758700736	0	74.94751629063997	45.0185197232012	0	0
